<svg xmlns="http://www.w3.org/2000/svg">
  <defs>
    <symbol id="icon-hike" viewBox="0 0 24 24">
      <circle cx="9" cy="5" r="2"/>
      <path d="M9 7v6l3 2v7M6 22l4-8M13 6h6v12" fill="none" stroke="currentColor" stroke-width="2" stroke-linecap="round"/>
    </symbol>

    <!-- Viewpoint: a smple eye -->
    <symbol id="icon-view" viewBox="0 0 24 24">
      <path d="M1 12s4-7 11-7 11 7 11 7-4 7-11 7S1 12 1 12Z" fill="none" stroke="currentColor" stroke-width="2"/>
      <circle cx="12" cy="12" r="3" fill="currentColor"/>
    </symbol>

     <!-- Lodging: a bed -->
    <symbol id="icon-bed" viewBox="0 0 24 24">
  <path d="M3 18V8h18v10M3 14h18" fill="none" stroke="currentColor" stroke-width="2" stroke-linecap="round"/>
</symbol>


    <!-- Activties: star -->
    <symbol id="icon-activity" viewBox="0 0 24 24">
  <path d="M12 3l2.5 6h6l-4.5 3.5L17 21l-5-3-5 3 1-8.5L3.5 9h6L12 3Z"
    fill="none" stroke="currentColor" stroke-width="2" stroke-linecap="round" stroke-linejoin="round"/>
</symbol>

  </defs>
</svg>
